# xmcd
#
# Track frame offsets: 
#        150
#        13162
#        25917
#        36232
#        47695
#        57842
#        69967
#        81872
#        95552
#        105737
#        117672
#        131777
#        144630
#        159047
#        171535
#        182317
#
# Disc length: 2603 seconds
#
# Revision: 2
# Processed by: cddbd v1.5.2PL0 Copyright (c) Steve Scherf et al.
# Submitted via: ExactAudioCopy v0.99pb4
#
DISCID=d90a2910
DTITLE=Various Artist - The Fabulous Fifties CD2
DYEAR=1995
DGENRE=Oldies
TTITLE0=Nat King Cole - Smile
TTITLE1=Les Paul and Mary Ford - Vaya Con Dios
TTITLE2=The Four Freshman - Charmaine
TTITLE3=Les Baxter - Unchained Melody
TTITLE4=Michael Holiday - The Story Of My Life
TTITLE5=Eartha Kitt - Under The Bridge Of Paris
TTITLE6=Vic Damone - On The Street Where You Live
TTITLE7=Kingston Trio - Tom Dooley
TTITLE8=Jimmie Rodgers - Honeycomb
TTITLE9=Cathy Carr - Ivory Tower
TTITLE10=Dean Martin - That's Amore
TTITLE11=The Browns - The Three Bells
TTITLE12=Jo Stafford - You Belong To Me
TTITLE13=Al Martino - Spanish Eyes
TTITLE14=Kay Starr - Comes A-long A-love
TTITLE15=Peggy Lee - Alright Okay You Win
EXTD=
EXTT0=
EXTT1=
EXTT2=
EXTT3=
EXTT4=
EXTT5=
EXTT6=
EXTT7=
EXTT8=
EXTT9=
EXTT10=
EXTT11=
EXTT12=
EXTT13=
EXTT14=
EXTT15=
PLAYORDER=
